<svg xmlns="http://www.w3.org/2000/svg" xmlns:xlink="http://www.w3.org/1999/xlink" viewBox="0 0 674.6 281.4"><defs><radialGradient id="Degradado_sin_nombre_11" cx="356" cy="239.8" r="9.4" data-name="Degradado sin nombre 11" fx="356" fy="239.8" gradientUnits="userSpaceOnUse"><stop offset=".1" stop-color="#44a287" stop-opacity=".8"/><stop offset=".9" stop-color="#45bb85"/></radialGradient><radialGradient xlink:href="#Degradado_sin_nombre_11" id="Degradado_sin_nombre_11-2" cx="379.1" cy="240" r="10.5" data-name="Degradado sin nombre 11" fx="379.1" fy="240"/><radialGradient xlink:href="#Degradado_sin_nombre_11" id="Degradado_sin_nombre_11-3" cx="403.6" cy="239.6" r="9.4" data-name="Degradado sin nombre 11" fx="403.6" fy="239.6"/><radialGradient xlink:href="#Degradado_sin_nombre_11" id="Degradado_sin_nombre_11-4" cx="424.4" r="8.9" data-name="Degradado sin nombre 11" fx="424.4"/><radialGradient xlink:href="#Degradado_sin_nombre_11" id="Degradado_sin_nombre_11-5" cx="445.1" cy="240" r="9.4" data-name="Degradado sin nombre 11" fx="445.1" fy="240"/><radialGradient xlink:href="#Degradado_sin_nombre_11" id="Degradado_sin_nombre_11-6" cx="462.2" cy="234.6" r="10.9" data-name="Degradado sin nombre 11" fx="462.2" fy="234.6"/><radialGradient xlink:href="#Degradado_sin_nombre_11" id="Degradado_sin_nombre_11-7" cx="475.4" cy="237.9" r="10.2" data-name="Degradado sin nombre 11" fx="475.4" fy="237.9"/><radialGradient xlink:href="#Degradado_sin_nombre_11" id="Degradado_sin_nombre_11-8" cx="488.7" cy="235.6" r="10.3" data-name="Degradado sin nombre 11" fx="488.7" fy="235.6"/><radialGradient xlink:href="#Degradado_sin_nombre_11" id="Degradado_sin_nombre_11-9" cx="505.8" cy="239.6" r="9.4" data-name="Degradado sin nombre 11" fx="505.8" fy="239.6"/><radialGradient xlink:href="#Degradado_sin_nombre_11" id="Degradado_sin_nombre_11-10" cx="527.4" cy="245" r="12.7" data-name="Degradado sin nombre 11" fx="527.4" fy="245"/><radialGradient xlink:href="#Degradado_sin_nombre_11" id="Degradado_sin_nombre_11-11" cx="560.8" cy="245" r="12.7" data-name="Degradado sin nombre 11" fx="560.8" fy="245"/><radialGradient xlink:href="#Degradado_sin_nombre_11" id="Degradado_sin_nombre_11-12" cx="581.8" cy="239.6" r="9" data-name="Degradado sin nombre 11" fx="581.8" fy="239.6"/><radialGradient xlink:href="#Degradado_sin_nombre_11" id="Degradado_sin_nombre_11-13" cx="601.4" cy="240" r="10.5" data-name="Degradado sin nombre 11" fx="601.4" fy="240"/><radialGradient xlink:href="#Degradado_sin_nombre_11" id="Degradado_sin_nombre_11-14" cx="625.8" cy="240" r="9.4" data-name="Degradado sin nombre 11" fx="625.8" fy="240"/><radialGradient xlink:href="#Degradado_sin_nombre_11" id="Degradado_sin_nombre_11-15" cx="649.7" cy="245" r="12.6" data-name="Degradado sin nombre 11" fx="649.7" fy="245"/><radialGradient xlink:href="#Degradado_sin_nombre_11" id="Degradado_sin_nombre_11-16" cx="379.1" cy="240" r="10.5" data-name="Degradado sin nombre 11" fx="379.1" fy="240"/><radialGradient xlink:href="#Degradado_sin_nombre_11" id="Degradado_sin_nombre_11-17" cx="403.6" cy="239.6" r="9.4" data-name="Degradado sin nombre 11" fx="403.6" fy="239.6"/><radialGradient xlink:href="#Degradado_sin_nombre_11" id="Degradado_sin_nombre_11-18" cx="424.4" r="8.9" data-name="Degradado sin nombre 11" fx="424.4"/><radialGradient xlink:href="#Degradado_sin_nombre_11" id="Degradado_sin_nombre_11-19" cx="445.1" cy="240" r="9.4" data-name="Degradado sin nombre 11" fx="445.1" fy="240"/><radialGradient xlink:href="#Degradado_sin_nombre_11" id="Degradado_sin_nombre_11-20" cx="462.2" cy="234.6" r="10.9" data-name="Degradado sin nombre 11" fx="462.2" fy="234.6"/><radialGradient xlink:href="#Degradado_sin_nombre_11" id="Degradado_sin_nombre_11-21" cx="475.4" cy="237.9" r="10.2" data-name="Degradado sin nombre 11" fx="475.4" fy="237.9"/><radialGradient xlink:href="#Degradado_sin_nombre_11" id="Degradado_sin_nombre_11-22" cx="488.7" cy="235.6" r="10.3" data-name="Degradado sin nombre 11" fx="488.7" fy="235.6"/><radialGradient xlink:href="#Degradado_sin_nombre_11" id="Degradado_sin_nombre_11-23" cx="505.8" cy="239.6" r="9.4" data-name="Degradado sin nombre 11" fx="505.8" fy="239.6"/><radialGradient xlink:href="#Degradado_sin_nombre_11" id="Degradado_sin_nombre_11-24" cx="527.4" cy="245" r="12.7" data-name="Degradado sin nombre 11" fx="527.4" fy="245"/><radialGradient xlink:href="#Degradado_sin_nombre_11" id="Degradado_sin_nombre_11-25" cx="560.8" cy="245" r="12.7" data-name="Degradado sin nombre 11" fx="560.8" fy="245"/><radialGradient xlink:href="#Degradado_sin_nombre_11" id="Degradado_sin_nombre_11-26" cx="581.8" cy="239.6" r="9" data-name="Degradado sin nombre 11" fx="581.8" fy="239.6"/><radialGradient xlink:href="#Degradado_sin_nombre_11" id="Degradado_sin_nombre_11-27" cx="601.4" cy="240" r="10.5" data-name="Degradado sin nombre 11" fx="601.4" fy="240"/><radialGradient xlink:href="#Degradado_sin_nombre_11" id="Degradado_sin_nombre_11-28" cx="625.8" cy="240" r="9.4" data-name="Degradado sin nombre 11" fx="625.8" fy="240"/><radialGradient xlink:href="#Degradado_sin_nombre_11" id="Degradado_sin_nombre_11-29" cx="649.7" cy="245" r="12.6" data-name="Degradado sin nombre 11" fx="649.7" fy="245"/><radialGradient xlink:href="#Degradado_sin_nombre_11" id="Degradado_sin_nombre_11-30" cx="379.1" cy="240" r="10.5" data-name="Degradado sin nombre 11" fx="379.1" fy="240"/><radialGradient xlink:href="#Degradado_sin_nombre_11" id="Degradado_sin_nombre_11-31" cx="403.6" cy="239.6" r="9.4" data-name="Degradado sin nombre 11" fx="403.6" fy="239.6"/><radialGradient xlink:href="#Degradado_sin_nombre_11" id="Degradado_sin_nombre_11-32" cx="424.4" r="8.9" data-name="Degradado sin nombre 11" fx="424.4"/><radialGradient xlink:href="#Degradado_sin_nombre_11" id="Degradado_sin_nombre_11-33" cx="445.1" cy="240" r="9.4" data-name="Degradado sin nombre 11" fx="445.1" fy="240"/><radialGradient xlink:href="#Degradado_sin_nombre_11" id="Degradado_sin_nombre_11-34" cx="462.2" cy="234.6" r="10.9" data-name="Degradado sin nombre 11" fx="462.2" fy="234.6"/><radialGradient xlink:href="#Degradado_sin_nombre_11" id="Degradado_sin_nombre_11-35" cx="475.4" cy="237.9" r="10.2" data-name="Degradado sin nombre 11" fx="475.4" fy="237.9"/><radialGradient xlink:href="#Degradado_sin_nombre_11" id="Degradado_sin_nombre_11-36" cx="488.7" cy="235.6" r="10.3" data-name="Degradado sin nombre 11" fx="488.7" fy="235.6"/><radialGradient xlink:href="#Degradado_sin_nombre_11" id="Degradado_sin_nombre_11-37" cx="505.8" cy="239.6" r="9.4" data-name="Degradado sin nombre 11" fx="505.8" fy="239.6"/><radialGradient xlink:href="#Degradado_sin_nombre_11" id="Degradado_sin_nombre_11-38" cx="527.4" cy="245" r="12.7" data-name="Degradado sin nombre 11" fx="527.4" fy="245"/><radialGradient xlink:href="#Degradado_sin_nombre_11" id="Degradado_sin_nombre_11-39" cx="560.8" cy="245" r="12.7" data-name="Degradado sin nombre 11" fx="560.8" fy="245"/><radialGradient xlink:href="#Degradado_sin_nombre_11" id="Degradado_sin_nombre_11-40" cx="581.8" cy="239.6" r="9" data-name="Degradado sin nombre 11" fx="581.8" fy="239.6"/><radialGradient xlink:href="#Degradado_sin_nombre_11" id="Degradado_sin_nombre_11-41" cx="601.4" cy="240" r="10.5" data-name="Degradado sin nombre 11" fx="601.4" fy="240"/><radialGradient xlink:href="#Degradado_sin_nombre_11" id="Degradado_sin_nombre_11-42" cx="625.8" cy="240" r="9.4" data-name="Degradado sin nombre 11" fx="625.8" fy="240"/><radialGradient xlink:href="#Degradado_sin_nombre_11" id="Degradado_sin_nombre_11-43" cx="649.7" cy="245" r="12.6" data-name="Degradado sin nombre 11" fx="649.7" fy="245"/><linearGradient id="Degradado_sin_nombre_5" x1="-103.2" x2="141.7" y1="-92.8" y2="-69.6" data-name="Degradado sin nombre 5" gradientTransform="matrix(1.6 0 0 1.5 433.6 235.5)" gradientUnits="userSpaceOnUse"><stop offset="0" stop-color="#4ba685"/><stop offset="1" stop-color="#3dd384"/></linearGradient><style>.cls-7{fill:url(#Degradado_sin_nombre_11)}</style></defs><g id="Capa_1"><path d="M331.5 107.3c5.3-5.5 12.9-2.5 19.3-3.6 17.1-3.1 38.5-9.7 39.4-29.3s-16.3-25.2-32.8-26.3c-45.2-2.9-72.8 40.8-61.8 79.4s72.6 60.5 108.2 29.2c30.7-27 14.5-61 35.6-93.1 15.6-23.7 55-47.2 85.4-40.8 11.2 2.4 12.5 21.2 0 24.9-18.2 5.2-27.7.6-45.9 14-58.5 43.1-7.7 131.8 65.1 106.7 32-11 36.1-33.2 41.5-60.4 2.8-14.1 25.3-15.3 28 1.6 3.1 19.8-6.8 49.9 19.2 60.3 9.5 3.8 25.5.5 27.4 11.8 4.9 28.7-37.9 15.6-51.8 5.2-6.3-4.8-11.6-11.9-16-18.1-2.5-.5-13.8 11.9-17.2 14-5.3 3.3-25.3 12.6-31.5 14-41.9 9.1-80.1-6.3-104.8-38.5-56.3 77.8-181 38.4-173.5-58.1 4.4-56.4 66.3-95.5 122.3-71.6 39.7 16.9 39.9 67.1 4.8 89-12 7.5-39.7 16-53.7 12.9-11.1-2.5-14.9-15.3-7.4-23Z" style="fill:url(#Degradado_sin_nombre_5)"/><path d="M113.6 173.1c20.1-3.5 38.1-11.5 49.3-28.2 14.8-22.1 9-45.1 18.7-68.3 13.3-32.1 53.9-59 91.1-54.4 13.4 1.7 14.1 22.7 1.2 25.4s-24.5 1-40.3 10.2c-47.1 27.6-25.2 85.4-30.5 128.1-1.3 10.1-8.4 12.7-18.3 11.2-11.6-1.8-10.1-14.3-11.3-22.5-10 9.1-21.1 15.4-34.4 19.6-6.3.2-8.3-11.9-.6-12.1-6.1-4.8-13.9-6.8-23.3-5.9l-1.7-3.2Z" style="fill:#44a287"/><path d="m91.2 22.3 4.5 1.1c13.4-.5 17.5 3.2 12.6 11 12 7.6 5.3 12.6-20.3 15.1-8.1 2.3-9.3 1.6-17.5 6.9-32.3 20.8-38 65.6-13.6 94 15.6 18.1 33.5 20.6 56.6 22.7s18.5-1.4 27.9 7.6-1.4 4.5-5.6 4.5l3.2 9C10.1 234.8-40.2 43 91.2 22.3" style="fill:#35a18d"/><path d="M88.1 49.5c5.6-1.6 6.6-1.9 13.5-3.1s6.3-4.5 10.4-4.5c.4-8.9-16.8-2.4-17.6-3-4-3.4 9.9-5 11.3-6.6 7.8-8.6-11.6-3.8-14.5-9.9 30.6-4.8 71.6 9.9 75.1 43 3.4 32.7-16.8 54.2-49.2 62.1-14.7 3.6-45.6 8.6-39.9-15.1s15.5-7.6 24-9c16.7-2.8 37-10.3 38-29.1C140.6 50.1 107 44.7 88 49.5Z" style="fill:#3ca088"/><path d="M364.1 245.2v4c-2 .7-4 1.1-5.9 1.1-3.2 0-5.7-.9-7.6-2.8s-2.8-4.4-2.8-7.5.9-5.7 2.7-7.7 4.2-2.9 7.2-2.9 2 0 2.8.3c.8.2 1.8.6 3.1 1.1v4.3c-2-1.3-3.9-1.9-5.6-1.9s-3.3.6-4.4 1.9c-1.2 1.3-1.7 2.9-1.7 4.8s.6 3.7 1.9 4.9 2.9 1.8 5.1 1.8 3.3-.4 5.3-1.3Z" class="cls-7"/><path d="M379.2 229.7c3.1 0 5.6 1 7.7 3 2 2 3.1 4.5 3.1 7.5s-1 5.3-3.1 7.3c-2.1 1.9-4.7 2.9-7.8 2.9s-5.6-1-7.6-2.9c-2-2-3.1-4.4-3.1-7.3s1-5.4 3.1-7.4 4.6-3 7.7-3Zm-.2 3.6c-1.9 0-3.5.6-4.7 1.9s-1.8 2.9-1.8 4.8.6 3.5 1.9 4.7 2.9 1.8 4.9 1.8 3.6-.6 4.8-1.9c1.3-1.2 1.9-2.8 1.9-4.8s-.7-3.5-2-4.8-2.9-1.9-4.9-1.9Z" style="fill:url(#Degradado_sin_nombre_11-2)"/><path d="M399.2 229.7v2.6c1.8-2 3.8-3 6.1-3s2.4.3 3.5 1 1.9 1.5 2.5 2.7c.6 1.1.8 2.9.8 5.4V250h-4v-11.5c0-2.1-.3-3.5-.9-4.4s-1.7-1.3-3.2-1.3-3.5.9-4.8 2.8V250h-4.1v-20.2h4.1Z" style="fill:url(#Degradado_sin_nombre_11-3)"/><path d="M417.6 248.5v-4.3c1.1.8 2.3 1.4 3.5 1.9s2.2.7 3 .7 1.6-.2 2.2-.6.9-.9.9-1.5-.2-1.1-.6-1.5-1.2-.9-2.5-1.7c-2.6-1.4-4.3-2.7-5.1-3.7q-1.2-1.5-1.2-3.3c0-1.8.6-2.8 1.8-3.8s2.8-1.5 4.7-1.5 4 .6 6.1 1.7v4c-2.4-1.4-4.3-2.2-5.8-2.2s-1.4.2-1.9.5-.7.8-.7 1.3.2.9.6 1.3 1.2.9 2.3 1.5l1.4.8q5.1 2.85 5.1 6.3c0 3.45-.6 3-1.9 4.1s-3 1.6-5 1.6-2.3-.1-3.2-.4-2.1-.7-3.5-1.4Z" style="fill:url(#Degradado_sin_nombre_11-4)"/><path d="M449.6 249.9v-2.6c-.8.9-1.8 1.7-2.9 2.2s-2.2.8-3.3.8-2.5-.3-3.5-1c-1.1-.6-1.9-1.5-2.4-2.6s-.8-2.9-.8-5.4v-11.6h4v11.5c0 2.1.3 3.6.9 4.4s1.7 1.3 3.2 1.3 3.5-.9 4.9-2.8v-14.4h4v20.2h-4Z" style="fill:url(#Degradado_sin_nombre_11-5)"/><path d="M460.2 219.2h4v30.7h-4z" style="fill:url(#Degradado_sin_nombre_11-6)"/><path d="m468 232.9 7.5-7.4v4.2h6.4v3.6h-6.4v9.9c0 2.3 1 3.5 2.9 3.5s3-.5 4.5-1.4v3.7c-1.5.9-3.2 1.3-5 1.3s-3.4-.5-4.6-1.6c-.4-.3-.7-.7-.9-1.1s-.5-.9-.6-1.6c-.2-.7-.3-1.9-.3-3.7v-9H468z" style="fill:url(#Degradado_sin_nombre_11-7)"/><path d="M488.7 221.2c.7 0 1.2.2 1.7.7s.7 1 .7 1.7-.2 1.2-.7 1.7-1 .7-1.7.7-1.2-.2-1.6-.7c-.5-.5-.7-1-.7-1.7s.2-1.2.7-1.6c.5-.5 1-.7 1.6-.7Zm-2 8.5h4v20.2h-4z" style="fill:url(#Degradado_sin_nombre_11-8)"/><path d="M501.4 229.7v2.6c1.8-2 3.8-3 6.1-3s2.4.3 3.5 1 1.9 1.5 2.5 2.7c.6 1.1.8 2.9.8 5.4V250h-4v-11.5c0-2.1-.3-3.5-.9-4.4s-1.7-1.3-3.2-1.3-3.5.9-4.8 2.8V250h-4.1v-20.2h4.1Z" style="fill:url(#Degradado_sin_nombre_11-9)"/><path d="M519.7 236.7q0-3.3 2.4-5.1c1.6-1.3 3.7-1.9 6.4-1.9h8.3v3.1h-4.1c.8.8 1.3 1.5 1.6 2.2s.5 1.4.5 2.3-.3 2.1-.9 3.1-1.4 1.8-2.3 2.3-2.5 1-4.6 1.3c-1.5.2-2.3.7-2.3 1.6s.3.9.8 1.2c.6.3 1.6.6 3.1.9 2.5.5 4.1 1 4.8 1.3s1.4.7 1.9 1.3q1.5 1.5 1.5 3.6c0 2.1-.9 3.5-2.6 4.6s-4 1.7-6.8 1.7-5.2-.6-6.9-1.7-2.6-2.7-2.6-4.6c0-2.7 1.7-4.5 5.1-5.3-1.3-.9-2-1.7-2-2.6s.3-1.2.9-1.8 1.4-.9 2.3-1.2c-3-1.3-4.5-3.4-4.5-6.4Zm6.6 14.2q-1.95 0-3.3.9c-.9.6-1.3 1.3-1.3 2.2 0 2.1 1.9 3.1 5.6 3.1s3.1-.3 4.1-.8 1.5-1.3 1.5-2.2-.6-1.7-1.8-2.3q-1.8-.9-4.8-.9m.9-17.7c-1.1 0-2 .4-2.8 1.1s-1.1 1.6-1.1 2.6.4 1.9 1.1 2.6 1.7 1 2.8 1 2.1-.3 2.8-1c.8-.7 1.1-1.6 1.1-2.6s-.4-1.9-1.1-2.6-1.7-1.1-2.9-1.1Z" style="fill:url(#Degradado_sin_nombre_11-10)"/><path d="M553.1 236.7q0-3.3 2.4-5.1c1.6-1.3 3.7-1.9 6.4-1.9h8.3v3.1h-4.1c.8.8 1.3 1.5 1.6 2.2s.5 1.4.5 2.3-.3 2.1-.9 3.1-1.4 1.8-2.3 2.3-2.5 1-4.6 1.3c-1.5.2-2.3.7-2.3 1.6s.3.9.8 1.2c.6.3 1.6.6 3.1.9 2.5.5 4.1 1 4.8 1.3s1.4.7 1.9 1.3q1.5 1.5 1.5 3.6c0 2.1-.9 3.5-2.6 4.6s-4 1.7-6.8 1.7-5.2-.6-6.9-1.7-2.6-2.7-2.6-4.6c0-2.7 1.7-4.5 5.1-5.3-1.3-.9-2-1.7-2-2.6s.3-1.2.9-1.8 1.4-.9 2.3-1.2c-3-1.3-4.5-3.4-4.5-6.4Zm6.6 14.2q-1.95 0-3.3.9c-.9.6-1.3 1.3-1.3 2.2 0 2.1 1.9 3.1 5.6 3.1s3.1-.3 4.1-.8 1.5-1.3 1.5-2.2-.6-1.7-1.8-2.3q-1.8-.9-4.8-.9m.9-17.7c-1.1 0-2 .4-2.8 1.1s-1.1 1.6-1.1 2.6.4 1.9 1.1 2.6 1.7 1 2.8 1 2.1-.3 2.8-1c.8-.7 1.1-1.6 1.1-2.6s-.4-1.9-1.1-2.6-1.7-1.1-2.9-1.1Z" style="fill:url(#Degradado_sin_nombre_11-11)"/><path d="M578.5 229.7v4.6l.2-.4c1.9-3.1 3.9-4.7 5.8-4.7s3.1.8 4.7 2.3l-2.1 3.5c-1.4-1.3-2.7-2-3.9-2s-2.4.6-3.4 1.8c-.9 1.2-1.4 2.7-1.4 4.4v10.6h-4v-20.2h4Z" style="fill:url(#Degradado_sin_nombre_11-12)"/><path d="M601.4 229.7c3.1 0 5.6 1 7.7 3 2 2 3.1 4.5 3.1 7.5s-1 5.3-3.1 7.3c-2.1 1.9-4.7 2.9-7.8 2.9s-5.6-1-7.6-2.9c-2-2-3.1-4.4-3.1-7.3s1-5.4 3.1-7.4 4.6-3 7.7-3Zm-.2 3.6c-1.9 0-3.5.6-4.7 1.9s-1.8 2.9-1.8 4.8.6 3.5 1.9 4.7 2.9 1.8 4.9 1.8 3.6-.6 4.8-1.9c1.3-1.2 1.9-2.8 1.9-4.8s-.7-3.5-2-4.8-2.9-1.9-4.9-1.9Z" style="fill:url(#Degradado_sin_nombre_11-13)"/><path d="M630.3 249.9v-2.6c-.8.9-1.8 1.7-2.9 2.2s-2.2.8-3.3.8-2.5-.3-3.5-1c-1.1-.6-1.9-1.5-2.4-2.6s-.8-2.9-.8-5.4v-11.6h4v11.5c0 2.1.3 3.6.9 4.4s1.7 1.3 3.2 1.3 3.5-.9 4.9-2.8v-14.4h4v20.2h-4Z" style="fill:url(#Degradado_sin_nombre_11-14)"/><path d="M640.5 260.2v-30.5h7q5.4 0 8.4 2.7t3 7.5c0 4.8-.9 5.5-2.8 7.5s-4.3 2.9-7.2 2.9-2.7-.3-4.3-.9v10.8zm6.9-26.7h-2.8v12.4q1.8.9 3.9.9c2.1 0 3.4-.7 4.6-2s1.8-3 1.8-5-.3-2.5-.8-3.5-1.3-1.7-2.3-2.2-2.4-.7-4.3-.7Z" style="fill:url(#Degradado_sin_nombre_11-15)"/><path d="M364.1 245.2v4c-2 .7-4 1.1-5.9 1.1-3.2 0-5.7-.9-7.6-2.8s-2.8-4.4-2.8-7.5.9-5.7 2.7-7.7 4.2-2.9 7.2-2.9 2 0 2.8.3c.8.2 1.8.6 3.1 1.1v4.3c-2-1.3-3.9-1.9-5.6-1.9s-3.3.6-4.4 1.9c-1.2 1.3-1.7 2.9-1.7 4.8s.6 3.7 1.9 4.9 2.9 1.8 5.1 1.8 3.3-.4 5.3-1.3Z" class="cls-7"/><path d="M379.2 229.7c3.1 0 5.6 1 7.7 3 2 2 3.1 4.5 3.1 7.5s-1 5.3-3.1 7.3c-2.1 1.9-4.7 2.9-7.8 2.9s-5.6-1-7.6-2.9c-2-2-3.1-4.4-3.1-7.3s1-5.4 3.1-7.4 4.6-3 7.7-3Zm-.2 3.6c-1.9 0-3.5.6-4.7 1.9s-1.8 2.9-1.8 4.8.6 3.5 1.9 4.7 2.9 1.8 4.9 1.8 3.6-.6 4.8-1.9c1.3-1.2 1.9-2.8 1.9-4.8s-.7-3.5-2-4.8-2.9-1.9-4.9-1.9Z" style="fill:url(#Degradado_sin_nombre_11-16)"/><path d="M399.2 229.7v2.6c1.8-2 3.8-3 6.1-3s2.4.3 3.5 1 1.9 1.5 2.5 2.7c.6 1.1.8 2.9.8 5.4V250h-4v-11.5c0-2.1-.3-3.5-.9-4.4s-1.7-1.3-3.2-1.3-3.5.9-4.8 2.8V250h-4.1v-20.2h4.1Z" style="fill:url(#Degradado_sin_nombre_11-17)"/><path d="M417.6 248.5v-4.3c1.1.8 2.3 1.4 3.5 1.9s2.2.7 3 .7 1.6-.2 2.2-.6.9-.9.9-1.5-.2-1.1-.6-1.5-1.2-.9-2.5-1.7c-2.6-1.4-4.3-2.7-5.1-3.7q-1.2-1.5-1.2-3.3c0-1.8.6-2.8 1.8-3.8s2.8-1.5 4.7-1.5 4 .6 6.1 1.7v4c-2.4-1.4-4.3-2.2-5.8-2.2s-1.4.2-1.9.5-.7.8-.7 1.3.2.9.6 1.3 1.2.9 2.3 1.5l1.4.8q5.1 2.85 5.1 6.3c0 3.45-.6 3-1.9 4.1s-3 1.6-5 1.6-2.3-.1-3.2-.4-2.1-.7-3.5-1.4Z" style="fill:url(#Degradado_sin_nombre_11-18)"/><path d="M449.6 249.9v-2.6c-.8.9-1.8 1.7-2.9 2.2s-2.2.8-3.3.8-2.5-.3-3.5-1c-1.1-.6-1.9-1.5-2.4-2.6s-.8-2.9-.8-5.4v-11.6h4v11.5c0 2.1.3 3.6.9 4.4s1.7 1.3 3.2 1.3 3.5-.9 4.9-2.8v-14.4h4v20.2h-4Z" style="fill:url(#Degradado_sin_nombre_11-19)"/><path d="M460.2 219.2h4v30.7h-4z" style="fill:url(#Degradado_sin_nombre_11-20)"/><path d="m468 232.9 7.5-7.4v4.2h6.4v3.6h-6.4v9.9c0 2.3 1 3.5 2.9 3.5s3-.5 4.5-1.4v3.7c-1.5.9-3.2 1.3-5 1.3s-3.4-.5-4.6-1.6c-.4-.3-.7-.7-.9-1.1s-.5-.9-.6-1.6c-.2-.7-.3-1.9-.3-3.7v-9H468z" style="fill:url(#Degradado_sin_nombre_11-21)"/><path d="M488.7 221.2c.7 0 1.2.2 1.7.7s.7 1 .7 1.7-.2 1.2-.7 1.7-1 .7-1.7.7-1.2-.2-1.6-.7c-.5-.5-.7-1-.7-1.7s.2-1.2.7-1.6c.5-.5 1-.7 1.6-.7Zm-2 8.5h4v20.2h-4z" style="fill:url(#Degradado_sin_nombre_11-22)"/><path d="M501.4 229.7v2.6c1.8-2 3.8-3 6.1-3s2.4.3 3.5 1 1.9 1.5 2.5 2.7c.6 1.1.8 2.9.8 5.4V250h-4v-11.5c0-2.1-.3-3.5-.9-4.4s-1.7-1.3-3.2-1.3-3.5.9-4.8 2.8V250h-4.1v-20.2h4.1Z" style="fill:url(#Degradado_sin_nombre_11-23)"/><path d="M519.7 236.7q0-3.3 2.4-5.1c1.6-1.3 3.7-1.9 6.4-1.9h8.3v3.1h-4.1c.8.8 1.3 1.5 1.6 2.2s.5 1.4.5 2.3-.3 2.1-.9 3.1-1.4 1.8-2.3 2.3-2.5 1-4.6 1.3c-1.5.2-2.3.7-2.3 1.6s.3.9.8 1.2c.6.3 1.6.6 3.1.9 2.5.5 4.1 1 4.8 1.3s1.4.7 1.9 1.3q1.5 1.5 1.5 3.6c0 2.1-.9 3.5-2.6 4.6s-4 1.7-6.8 1.7-5.2-.6-6.9-1.7-2.6-2.7-2.6-4.6c0-2.7 1.7-4.5 5.1-5.3-1.3-.9-2-1.7-2-2.6s.3-1.2.9-1.8 1.4-.9 2.3-1.2c-3-1.3-4.5-3.4-4.5-6.4Zm6.6 14.2q-1.95 0-3.3.9c-.9.6-1.3 1.3-1.3 2.2 0 2.1 1.9 3.1 5.6 3.1s3.1-.3 4.1-.8 1.5-1.3 1.5-2.2-.6-1.7-1.8-2.3q-1.8-.9-4.8-.9m.9-17.7c-1.1 0-2 .4-2.8 1.1s-1.1 1.6-1.1 2.6.4 1.9 1.1 2.6 1.7 1 2.8 1 2.1-.3 2.8-1c.8-.7 1.1-1.6 1.1-2.6s-.4-1.9-1.1-2.6-1.7-1.1-2.9-1.1Z" style="fill:url(#Degradado_sin_nombre_11-24)"/><path d="M553.1 236.7q0-3.3 2.4-5.1c1.6-1.3 3.7-1.9 6.4-1.9h8.3v3.1h-4.1c.8.8 1.3 1.5 1.6 2.2s.5 1.4.5 2.3-.3 2.1-.9 3.1-1.4 1.8-2.3 2.3-2.5 1-4.6 1.3c-1.5.2-2.3.7-2.3 1.6s.3.9.8 1.2c.6.3 1.6.6 3.1.9 2.5.5 4.1 1 4.8 1.3s1.4.7 1.9 1.3q1.5 1.5 1.5 3.6c0 2.1-.9 3.5-2.6 4.6s-4 1.7-6.8 1.7-5.2-.6-6.9-1.7-2.6-2.7-2.6-4.6c0-2.7 1.7-4.5 5.1-5.3-1.3-.9-2-1.7-2-2.6s.3-1.2.9-1.8 1.4-.9 2.3-1.2c-3-1.3-4.5-3.4-4.5-6.4Zm6.6 14.2q-1.95 0-3.3.9c-.9.6-1.3 1.3-1.3 2.2 0 2.1 1.9 3.1 5.6 3.1s3.1-.3 4.1-.8 1.5-1.3 1.5-2.2-.6-1.7-1.8-2.3q-1.8-.9-4.8-.9m.9-17.7c-1.1 0-2 .4-2.8 1.1s-1.1 1.6-1.1 2.6.4 1.9 1.1 2.6 1.7 1 2.8 1 2.1-.3 2.8-1c.8-.7 1.1-1.6 1.1-2.6s-.4-1.9-1.1-2.6-1.7-1.1-2.9-1.1Z" style="fill:url(#Degradado_sin_nombre_11-25)"/><path d="M578.5 229.7v4.6l.2-.4c1.9-3.1 3.9-4.7 5.8-4.7s3.1.8 4.7 2.3l-2.1 3.5c-1.4-1.3-2.7-2-3.9-2s-2.4.6-3.4 1.8c-.9 1.2-1.4 2.7-1.4 4.4v10.6h-4v-20.2h4Z" style="fill:url(#Degradado_sin_nombre_11-26)"/><path d="M601.4 229.7c3.1 0 5.6 1 7.7 3 2 2 3.1 4.5 3.1 7.5s-1 5.3-3.1 7.3c-2.1 1.9-4.7 2.9-7.8 2.9s-5.6-1-7.6-2.9c-2-2-3.1-4.4-3.1-7.3s1-5.4 3.1-7.4 4.6-3 7.7-3Zm-.2 3.6c-1.9 0-3.5.6-4.7 1.9s-1.8 2.9-1.8 4.8.6 3.5 1.9 4.7 2.9 1.8 4.9 1.8 3.6-.6 4.8-1.9c1.3-1.2 1.9-2.8 1.9-4.8s-.7-3.5-2-4.8-2.9-1.9-4.9-1.9Z" style="fill:url(#Degradado_sin_nombre_11-27)"/><path d="M630.3 249.9v-2.6c-.8.9-1.8 1.7-2.9 2.2s-2.2.8-3.3.8-2.5-.3-3.5-1c-1.1-.6-1.9-1.5-2.4-2.6s-.8-2.9-.8-5.4v-11.6h4v11.5c0 2.1.3 3.6.9 4.4s1.7 1.3 3.2 1.3 3.5-.9 4.9-2.8v-14.4h4v20.2h-4Z" style="fill:url(#Degradado_sin_nombre_11-28)"/><path d="M640.5 260.2v-30.5h7q5.4 0 8.4 2.7t3 7.5c0 4.8-.9 5.5-2.8 7.5s-4.3 2.9-7.2 2.9-2.7-.3-4.3-.9v10.8zm6.9-26.7h-2.8v12.4q1.8.9 3.9.9c2.1 0 3.4-.7 4.6-2s1.8-3 1.8-5-.3-2.5-.8-3.5-1.3-1.7-2.3-2.2-2.4-.7-4.3-.7Z" style="fill:url(#Degradado_sin_nombre_11-29)"/><path d="M364.1 245.2v4c-2 .7-4 1.1-5.9 1.1-3.2 0-5.7-.9-7.6-2.8s-2.8-4.4-2.8-7.5.9-5.7 2.7-7.7 4.2-2.9 7.2-2.9 2 0 2.8.3c.8.2 1.8.6 3.1 1.1v4.3c-2-1.3-3.9-1.9-5.6-1.9s-3.3.6-4.4 1.9c-1.2 1.3-1.7 2.9-1.7 4.8s.6 3.7 1.9 4.9 2.9 1.8 5.1 1.8 3.3-.4 5.3-1.3Z" class="cls-7"/><path d="M379.2 229.7c3.1 0 5.6 1 7.7 3 2 2 3.1 4.5 3.1 7.5s-1 5.3-3.1 7.3c-2.1 1.9-4.7 2.9-7.8 2.9s-5.6-1-7.6-2.9c-2-2-3.1-4.4-3.1-7.3s1-5.4 3.1-7.4 4.6-3 7.7-3Zm-.2 3.6c-1.9 0-3.5.6-4.7 1.9s-1.8 2.9-1.8 4.8.6 3.5 1.9 4.7 2.9 1.8 4.9 1.8 3.6-.6 4.8-1.9c1.3-1.2 1.9-2.8 1.9-4.8s-.7-3.5-2-4.8-2.9-1.9-4.9-1.9Z" style="fill:url(#Degradado_sin_nombre_11-30)"/><path d="M399.2 229.7v2.6c1.8-2 3.8-3 6.1-3s2.4.3 3.5 1 1.9 1.5 2.5 2.7c.6 1.1.8 2.9.8 5.4V250h-4v-11.5c0-2.1-.3-3.5-.9-4.4s-1.7-1.3-3.2-1.3-3.5.9-4.8 2.8V250h-4.1v-20.2h4.1Z" style="fill:url(#Degradado_sin_nombre_11-31)"/><path d="M417.6 248.5v-4.3c1.1.8 2.3 1.4 3.5 1.9s2.2.7 3 .7 1.6-.2 2.2-.6.9-.9.9-1.5-.2-1.1-.6-1.5-1.2-.9-2.5-1.7c-2.6-1.4-4.3-2.7-5.1-3.7q-1.2-1.5-1.2-3.3c0-1.8.6-2.8 1.8-3.8s2.8-1.5 4.7-1.5 4 .6 6.1 1.7v4c-2.4-1.4-4.3-2.2-5.8-2.2s-1.4.2-1.9.5-.7.8-.7 1.3.2.9.6 1.3 1.2.9 2.3 1.5l1.4.8q5.1 2.85 5.1 6.3c0 3.45-.6 3-1.9 4.1s-3 1.6-5 1.6-2.3-.1-3.2-.4-2.1-.7-3.5-1.4Z" style="fill:url(#Degradado_sin_nombre_11-32)"/><path d="M449.6 249.9v-2.6c-.8.9-1.8 1.7-2.9 2.2s-2.2.8-3.3.8-2.5-.3-3.5-1c-1.1-.6-1.9-1.5-2.4-2.6s-.8-2.9-.8-5.4v-11.6h4v11.5c0 2.1.3 3.6.9 4.4s1.7 1.3 3.2 1.3 3.5-.9 4.9-2.8v-14.4h4v20.2h-4Z" style="fill:url(#Degradado_sin_nombre_11-33)"/><path d="M460.2 219.2h4v30.7h-4z" style="fill:url(#Degradado_sin_nombre_11-34)"/><path d="m468 232.9 7.5-7.4v4.2h6.4v3.6h-6.4v9.9c0 2.3 1 3.5 2.9 3.5s3-.5 4.5-1.4v3.7c-1.5.9-3.2 1.3-5 1.3s-3.4-.5-4.6-1.6c-.4-.3-.7-.7-.9-1.1s-.5-.9-.6-1.6c-.2-.7-.3-1.9-.3-3.7v-9H468z" style="fill:url(#Degradado_sin_nombre_11-35)"/><path d="M488.7 221.2c.7 0 1.2.2 1.7.7s.7 1 .7 1.7-.2 1.2-.7 1.7-1 .7-1.7.7-1.2-.2-1.6-.7c-.5-.5-.7-1-.7-1.7s.2-1.2.7-1.6c.5-.5 1-.7 1.6-.7Zm-2 8.5h4v20.2h-4z" style="fill:url(#Degradado_sin_nombre_11-36)"/><path d="M501.4 229.7v2.6c1.8-2 3.8-3 6.1-3s2.4.3 3.5 1 1.9 1.5 2.5 2.7c.6 1.1.8 2.9.8 5.4V250h-4v-11.5c0-2.1-.3-3.5-.9-4.4s-1.7-1.3-3.2-1.3-3.5.9-4.8 2.8V250h-4.1v-20.2h4.1Z" style="fill:url(#Degradado_sin_nombre_11-37)"/><path d="M519.7 236.7q0-3.3 2.4-5.1c1.6-1.3 3.7-1.9 6.4-1.9h8.3v3.1h-4.1c.8.8 1.3 1.5 1.6 2.2s.5 1.4.5 2.3-.3 2.1-.9 3.1-1.4 1.8-2.3 2.3-2.5 1-4.6 1.3c-1.5.2-2.3.7-2.3 1.6s.3.9.8 1.2c.6.3 1.6.6 3.1.9 2.5.5 4.1 1 4.8 1.3s1.4.7 1.9 1.3q1.5 1.5 1.5 3.6c0 2.1-.9 3.5-2.6 4.6s-4 1.7-6.8 1.7-5.2-.6-6.9-1.7-2.6-2.7-2.6-4.6c0-2.7 1.7-4.5 5.1-5.3-1.3-.9-2-1.7-2-2.6s.3-1.2.9-1.8 1.4-.9 2.3-1.2c-3-1.3-4.5-3.4-4.5-6.4Zm6.6 14.2q-1.95 0-3.3.9c-.9.6-1.3 1.3-1.3 2.2 0 2.1 1.9 3.1 5.6 3.1s3.1-.3 4.1-.8 1.5-1.3 1.5-2.2-.6-1.7-1.8-2.3q-1.8-.9-4.8-.9m.9-17.7c-1.1 0-2 .4-2.8 1.1s-1.1 1.6-1.1 2.6.4 1.9 1.1 2.6 1.7 1 2.8 1 2.1-.3 2.8-1c.8-.7 1.1-1.6 1.1-2.6s-.4-1.9-1.1-2.6-1.7-1.1-2.9-1.1Z" style="fill:url(#Degradado_sin_nombre_11-38)"/><path d="M553.1 236.7q0-3.3 2.4-5.1c1.6-1.3 3.7-1.9 6.4-1.9h8.3v3.1h-4.1c.8.8 1.3 1.5 1.6 2.2s.5 1.4.5 2.3-.3 2.1-.9 3.1-1.4 1.8-2.3 2.3-2.5 1-4.6 1.3c-1.5.2-2.3.7-2.3 1.6s.3.9.8 1.2c.6.3 1.6.6 3.1.9 2.5.5 4.1 1 4.8 1.3s1.4.7 1.9 1.3q1.5 1.5 1.5 3.6c0 2.1-.9 3.5-2.6 4.6s-4 1.7-6.8 1.7-5.2-.6-6.9-1.7-2.6-2.7-2.6-4.6c0-2.7 1.7-4.5 5.1-5.3-1.3-.9-2-1.7-2-2.6s.3-1.2.9-1.8 1.4-.9 2.3-1.2c-3-1.3-4.5-3.4-4.5-6.4Zm6.6 14.2q-1.95 0-3.3.9c-.9.6-1.3 1.3-1.3 2.2 0 2.1 1.9 3.1 5.6 3.1s3.1-.3 4.1-.8 1.5-1.3 1.5-2.2-.6-1.7-1.8-2.3q-1.8-.9-4.8-.9m.9-17.7c-1.1 0-2 .4-2.8 1.1s-1.1 1.6-1.1 2.6.4 1.9 1.1 2.6 1.7 1 2.8 1 2.1-.3 2.8-1c.8-.7 1.1-1.6 1.1-2.6s-.4-1.9-1.1-2.6-1.7-1.1-2.9-1.1Z" style="fill:url(#Degradado_sin_nombre_11-39)"/><path d="M578.5 229.7v4.6l.2-.4c1.9-3.1 3.9-4.7 5.8-4.7s3.1.8 4.7 2.3l-2.1 3.5c-1.4-1.3-2.7-2-3.9-2s-2.4.6-3.4 1.8c-.9 1.2-1.4 2.7-1.4 4.4v10.6h-4v-20.2h4Z" style="fill:url(#Degradado_sin_nombre_11-40)"/><path d="M601.4 229.7c3.1 0 5.6 1 7.7 3 2 2 3.1 4.5 3.1 7.5s-1 5.3-3.1 7.3c-2.1 1.9-4.7 2.9-7.8 2.9s-5.6-1-7.6-2.9c-2-2-3.1-4.4-3.1-7.3s1-5.4 3.1-7.4 4.6-3 7.7-3Zm-.2 3.6c-1.9 0-3.5.6-4.7 1.9s-1.8 2.9-1.8 4.8.6 3.5 1.9 4.7 2.9 1.8 4.9 1.8 3.6-.6 4.8-1.9c1.3-1.2 1.9-2.8 1.9-4.8s-.7-3.5-2-4.8-2.9-1.9-4.9-1.9Z" style="fill:url(#Degradado_sin_nombre_11-41)"/><path d="M630.3 249.9v-2.6c-.8.9-1.8 1.7-2.9 2.2s-2.2.8-3.3.8-2.5-.3-3.5-1c-1.1-.6-1.9-1.5-2.4-2.6s-.8-2.9-.8-5.4v-11.6h4v11.5c0 2.1.3 3.6.9 4.4s1.7 1.3 3.2 1.3 3.5-.9 4.9-2.8v-14.4h4v20.2h-4Z" style="fill:url(#Degradado_sin_nombre_11-42)"/><path d="M640.5 260.2v-30.5h7q5.4 0 8.4 2.7t3 7.5c0 4.8-.9 5.5-2.8 7.5s-4.3 2.9-7.2 2.9-2.7-.3-4.3-.9v10.8zm6.9-26.7h-2.8v12.4q1.8.9 3.9.9c2.1 0 3.4-.7 4.6-2s1.8-3 1.8-5-.3-2.5-.8-3.5-1.3-1.7-2.3-2.2-2.4-.7-4.3-.7Z" style="fill:url(#Degradado_sin_nombre_11-43)"/></g></svg>